<mxfile host="app.diagrams.net" modified="2024-04-10T17:50:17.180Z" agent="Mozilla/5.0 (Windows NT 10.0; Win64; x64) AppleWebKit/537.36 (KHTML, like Gecko) Chrome/123.0.0.0 Safari/537.36 Edg/123.0.0.0" etag="jbpnon47x7GpCfr553Qj" version="24.2.0" type="github">
  <diagram id="XSM4oBVF5_mrXPqM3JRI" name="第 1 页">
    <mxGraphModel dx="1042" dy="569" grid="1" gridSize="10" guides="1" tooltips="1" connect="1" arrows="1" fold="1" page="1" pageScale="1" pageWidth="827" pageHeight="1169" math="0" shadow="0">
      <root>
        <mxCell id="0" />
        <mxCell id="1" parent="0" />
        <mxCell id="sidi8s4r-6cRWNvBowN3-40" style="edgeStyle=orthogonalEdgeStyle;rounded=0;orthogonalLoop=1;jettySize=auto;html=1;entryX=0;entryY=0.5;entryDx=0;entryDy=0;" edge="1" parent="1" source="sidi8s4r-6cRWNvBowN3-8" target="sidi8s4r-6cRWNvBowN3-39">
          <mxGeometry relative="1" as="geometry" />
        </mxCell>
        <mxCell id="sidi8s4r-6cRWNvBowN3-8" value="&lt;font color=&quot;#6666ff&quot;&gt;&lt;b&gt;Discord&lt;/b&gt;&lt;/font&gt;" style="whiteSpace=wrap;html=1;aspect=fixed;" vertex="1" parent="1">
          <mxGeometry x="10" y="250" width="80" height="80" as="geometry" />
        </mxCell>
        <mxCell id="sidi8s4r-6cRWNvBowN3-16" value="&lt;b&gt;MongoDB Alts&lt;/b&gt;&lt;div&gt;&lt;b&gt;Database&lt;br&gt;&lt;/b&gt;(Save settings)&lt;/div&gt;" style="shape=datastore;whiteSpace=wrap;html=1;" vertex="1" parent="1">
          <mxGeometry x="710" y="330" width="100" height="100" as="geometry" />
        </mxCell>
        <mxCell id="sidi8s4r-6cRWNvBowN3-24" value="" style="swimlane;startSize=0;" vertex="1" parent="1">
          <mxGeometry x="100" y="80" width="560" height="420" as="geometry" />
        </mxCell>
        <mxCell id="sidi8s4r-6cRWNvBowN3-20" value="&lt;b&gt;Lavalink&lt;br&gt;Server&lt;/b&gt;&lt;br&gt;(Relay Audio)" style="whiteSpace=wrap;html=1;aspect=fixed;" vertex="1" parent="sidi8s4r-6cRWNvBowN3-24">
          <mxGeometry x="274" y="320" width="80" height="80" as="geometry" />
        </mxCell>
        <mxCell id="sidi8s4r-6cRWNvBowN3-23" style="edgeStyle=orthogonalEdgeStyle;rounded=0;orthogonalLoop=1;jettySize=auto;html=1;exitX=0;exitY=0;exitDx=0;exitDy=45;exitPerimeter=0;entryX=-0.003;entryY=0.251;entryDx=0;entryDy=0;entryPerimeter=0;" edge="1" parent="sidi8s4r-6cRWNvBowN3-24">
          <mxGeometry relative="1" as="geometry">
            <mxPoint x="350" y="55" as="sourcePoint" />
            <mxPoint x="349.43000000000006" y="47.64999999999998" as="targetPoint" />
          </mxGeometry>
        </mxCell>
        <mxCell id="sidi8s4r-6cRWNvBowN3-38" value="Docker Container" style="swimlane;whiteSpace=wrap;html=1;" vertex="1" parent="sidi8s4r-6cRWNvBowN3-24">
          <mxGeometry x="60" y="100" width="200" height="200" as="geometry" />
        </mxCell>
        <mxCell id="sidi8s4r-6cRWNvBowN3-10" value="" style="image;sketch=0;aspect=fixed;html=1;points=[];align=center;fontSize=12;image=img/lib/mscae/Docker.svg;" vertex="1" parent="sidi8s4r-6cRWNvBowN3-38">
          <mxGeometry x="10" y="160" width="40" height="32.8" as="geometry" />
        </mxCell>
        <mxCell id="sidi8s4r-6cRWNvBowN3-39" value="&lt;b&gt;&lt;font color=&quot;#ff3333&quot;&gt;Luminara&lt;/font&gt;&lt;/b&gt;" style="whiteSpace=wrap;html=1;" vertex="1" parent="sidi8s4r-6cRWNvBowN3-38">
          <mxGeometry x="40" y="80" width="120" height="60" as="geometry" />
        </mxCell>
        <mxCell id="sidi8s4r-6cRWNvBowN3-42" style="edgeStyle=orthogonalEdgeStyle;rounded=0;orthogonalLoop=1;jettySize=auto;html=1;entryX=0;entryY=0.5;entryDx=0;entryDy=0;" edge="1" parent="sidi8s4r-6cRWNvBowN3-24" source="sidi8s4r-6cRWNvBowN3-39" target="sidi8s4r-6cRWNvBowN3-20">
          <mxGeometry relative="1" as="geometry" />
        </mxCell>
        <mxCell id="sidi8s4r-6cRWNvBowN3-43" value="Docker Container" style="swimlane;whiteSpace=wrap;html=1;" vertex="1" parent="sidi8s4r-6cRWNvBowN3-24">
          <mxGeometry x="320" y="10" width="220" height="160" as="geometry" />
        </mxCell>
        <mxCell id="sidi8s4r-6cRWNvBowN3-44" value="&lt;font color=&quot;#ff0000&quot;&gt;&lt;b&gt;LuminaraAPI&lt;/b&gt;&lt;/font&gt;&lt;br&gt;api.luminara.destinysoul.xyz" style="whiteSpace=wrap;html=1;" vertex="1" parent="sidi8s4r-6cRWNvBowN3-43">
          <mxGeometry x="30" y="50" width="160" height="80" as="geometry" />
        </mxCell>
        <mxCell id="sidi8s4r-6cRWNvBowN3-46" value="" style="image;sketch=0;aspect=fixed;html=1;points=[];align=center;fontSize=12;image=img/lib/mscae/Docker.svg;" vertex="1" parent="sidi8s4r-6cRWNvBowN3-43">
          <mxGeometry y="130" width="36.59" height="30" as="geometry" />
        </mxCell>
        <mxCell id="sidi8s4r-6cRWNvBowN3-48" style="edgeStyle=orthogonalEdgeStyle;rounded=0;orthogonalLoop=1;jettySize=auto;html=1;entryX=0;entryY=0.5;entryDx=0;entryDy=0;" edge="1" parent="sidi8s4r-6cRWNvBowN3-24" source="sidi8s4r-6cRWNvBowN3-39" target="sidi8s4r-6cRWNvBowN3-44">
          <mxGeometry relative="1" as="geometry" />
        </mxCell>
        <mxCell id="sidi8s4r-6cRWNvBowN3-26" value="&lt;font style=&quot;font-size: 20px;&quot;&gt;&lt;b&gt;內部系統&lt;/b&gt;&lt;/font&gt;" style="text;html=1;align=center;verticalAlign=middle;resizable=0;points=[];autosize=1;strokeColor=none;fillColor=none;" vertex="1" parent="sidi8s4r-6cRWNvBowN3-24">
          <mxGeometry x="440" y="370" width="100" height="40" as="geometry" />
        </mxCell>
        <mxCell id="sidi8s4r-6cRWNvBowN3-49" style="edgeStyle=orthogonalEdgeStyle;rounded=0;orthogonalLoop=1;jettySize=auto;html=1;exitX=1;exitY=0.5;exitDx=0;exitDy=0;" edge="1" parent="1" source="sidi8s4r-6cRWNvBowN3-39" target="sidi8s4r-6cRWNvBowN3-6">
          <mxGeometry relative="1" as="geometry" />
        </mxCell>
        <mxCell id="sidi8s4r-6cRWNvBowN3-50" style="edgeStyle=orthogonalEdgeStyle;rounded=0;orthogonalLoop=1;jettySize=auto;html=1;exitX=1;exitY=0.5;exitDx=0;exitDy=0;entryX=0;entryY=0.5;entryDx=0;entryDy=0;" edge="1" parent="1" source="sidi8s4r-6cRWNvBowN3-39" target="sidi8s4r-6cRWNvBowN3-16">
          <mxGeometry relative="1" as="geometry" />
        </mxCell>
        <mxCell id="sidi8s4r-6cRWNvBowN3-51" value="" style="swimlane;startSize=0;" vertex="1" parent="1">
          <mxGeometry x="680" y="80" width="200" height="420" as="geometry" />
        </mxCell>
        <mxCell id="sidi8s4r-6cRWNvBowN3-52" value="&lt;font style=&quot;font-size: 20px;&quot;&gt;&lt;b&gt;外部API&lt;/b&gt;&lt;/font&gt;" style="text;html=1;align=center;verticalAlign=middle;resizable=0;points=[];autosize=1;strokeColor=none;fillColor=none;" vertex="1" parent="sidi8s4r-6cRWNvBowN3-51">
          <mxGeometry x="90" y="360" width="100" height="40" as="geometry" />
        </mxCell>
        <mxCell id="sidi8s4r-6cRWNvBowN3-6" value="&lt;b&gt;&lt;font color=&quot;#330000&quot;&gt;Wizmodel API&lt;/font&gt;&lt;/b&gt;&lt;br&gt;(SDXL)" style="whiteSpace=wrap;html=1;aspect=fixed;" vertex="1" parent="sidi8s4r-6cRWNvBowN3-51">
          <mxGeometry x="30" y="130" width="100" height="100" as="geometry" />
        </mxCell>
      </root>
    </mxGraphModel>
  </diagram>
</mxfile>
